<svg class="svg-icon" style="width: 1em; height: 1em;vertical-align: middle;fill: currentColor;overflow: hidden;" viewBox="0 0 1024 1024" version="1.1" xmlns="http://www.w3.org/2000/svg"><path d="M1014.543678 9.459202a32.239736 32.239736 0 0 0-34.383718-7.30394L20.66383 371.592232a32.295735 32.295735 0 0 0-20.367832 25.783788 32.303735 32.303735 0 0 0 12.799895 30.255752L348.557141 675.493739l247.813967 335.437248a32.327735 32.327735 0 0 0 30.247752 12.783895 32.255735 32.255735 0 0 0 25.791788-20.367833L1021.847618 43.84292a32.279735 32.279735 0 0 0-7.30394-34.383718zM98.639191 410.663911l762.833742-293.70959-493.019955 493.051955L98.639191 410.663911z m514.699778 514.699778L414.036604 655.589902l493.003955-493.035955-293.70159 762.809742z" fill="#ffffff" /></svg>